# xmcd
# Track frame offsets:
# 150
# 19885
# 37220
# 58819
# 72256
# 86441
# 103624
# 117509
# 133494
# 146929
# 163812
# 175219
# 191502
# 208087
# 227233
# 243665
# 264688
#
# Disc length: 3748 seconds
# Revision: 0
# Processed by: cddbd v1.5.1PL0 Copyright (c) Steve Scherf et al.
# Submitted via: VisiTrax 2.9.10.228 - For more info visit www.synapsa.com
#
DISCID=120ea211
DTITLE=Dixie Chicks - Country Karaoke Classics  CKC006
DYEAR=1900
DGENRE=Karaoke
TTITLE0=Goodbye Earl
TTITLE1=Landslide
TTITLE2=Cowboy Take Me Away
TTITLE3=Let Er' Rip
TTITLE4=I Can Love You Better
TTITLE5=Ready To Run
TTITLE6=If I Fall You're Going Down With Me
TTITLE7=Without You
TTITLE8=You Can't Hurry Love
TTITLE9=Wide Open Spaces
TTITLE10=Somedays You Gotta Dance
TTITLE11=Tonight The Heartache's On Me
TTITLE12=Long Time Gone
TTITLE13=Cold Day In July
TTITLE14=You Were Mine
TTITLE15=Travelin' Soldier
TTITLE16=Sin Wagon
EXTD=
EXTT0=
EXTT1=
EXTT2=
EXTT3=
EXTT4=
EXTT5=
EXTT6=
EXTT7=
EXTT8=
EXTT9=
EXTT10=
EXTT11=
EXTT12=
EXTT13=
EXTT14=
EXTT15=
EXTT16=
PLAYORDER=
